<svg width="140" height="30" viewBox="0 0 140 30" fill="none" xmlns="http://www.w3.org/2000/svg">
<path d="M16.56 2.68C14.1333 1.74667 11.84 1.28 9.68 1.28C7.54667 1.28 5.88 1.73333 4.68 2.64C3.48 3.54667 2.88 4.8 2.88 6.4C2.88 8.34667 3.89333 9.85333 5.92 10.92C6.82667 11.3733 7.81333 11.8 8.88 12.2C9.97333 12.5733 11.0667 13 12.16 13.48C13.2533 13.96 14.2533 14.5067 15.16 15.12C16.0667 15.7333 16.8 16.5867 17.36 17.68C17.92 18.7467 18.2 20.12 18.2 21.8C18.2 23.4533 17.7333 24.8667 16.8 26.04C15.8667 27.2133 14.7333 28.0133 13.4 28.44C12.0933 28.84 10.56 29.04 8.8 29.04C5.52 29.04 2.72 28.2267 0.4 26.6L0.6 26.28C1.48 26.9733 2.61333 27.5467 4 28C5.41333 28.4267 6.85333 28.64 8.32 28.64C10.48 28.64 12.32 28.1467 13.84 27.16C15.3867 26.1467 16.16 24.6667 16.16 22.72C16.16 20.5867 15.1467 18.92 13.12 17.72C12.2133 17.1867 11.2133 16.6933 10.12 16.24C9.05333 15.7867 7.97333 15.32 6.88 14.84C5.78667 14.3333 4.78667 13.7733 3.88 13.16C1.85333 11.8267 0.84 9.93333 0.84 7.48C0.84 5.53333 1.49333 3.96 2.8 2.76C4.10667 1.53333 6.06667 0.919999 8.68 0.919999C11.32 0.919999 14 1.37333 16.72 2.28L16.56 2.68ZM22.3859 1.32C25.4793 1.10666 28.1993 0.999998 30.5459 0.999998C37.1593 0.999998 40.4659 3.33333 40.4659 8C40.4659 10.16 39.9059 12.0533 38.7859 13.68C38.1993 14.56 37.2926 15.2667 36.0659 15.8C34.8393 16.3067 33.3593 16.56 31.6259 16.56H25.7059V29H22.3859V1.32ZM30.5859 1.4C29.0393 1.4 27.4126 1.49333 25.7059 1.68V16.16H31.6259C35.3859 16 37.2659 13.3067 37.2659 8.08C37.2659 5.94667 36.7059 4.30667 35.5859 3.16C34.4659 1.98666 32.7993 1.4 30.5859 1.4ZM60.4153 0.999998V1.4H47.8153V13.4H59.4953V13.8H47.8153V28.6H61.2953V29H44.4953V0.999998H60.4153ZM68.8309 0.999998V18.68L81.7509 0.999998L82.0709 1.28L74.9109 11.04L85.5509 29H81.8309L72.8709 13.84L68.8309 19.4V29H65.5109V0.999998H68.8309ZM98.1744 29H94.8544V1.4H87.9344V0.999998H105.134V1.4H98.1744V29ZM109.144 1.32C112.237 1.10666 114.97 0.999998 117.344 0.999998C123.93 0.999998 127.224 3.2 127.224 7.6C127.224 9.46667 126.77 11.1333 125.864 12.6C124.957 14.0667 123.397 15.04 121.184 15.52L129.184 29H125.464L117.624 15.76H112.464V29H109.144V1.32ZM117.344 1.4C115.797 1.4 114.17 1.49333 112.464 1.68V15.36H118.384C122.144 15.2 124.024 12.64 124.024 7.68C124.024 5.65333 123.464 4.10667 122.344 3.04C121.224 1.94666 119.557 1.4 117.344 1.4ZM132.386 1.4V0.999998H139.506V1.4H137.546V28.6H139.506V29H132.386V28.6H134.226V1.4H132.386Z" fill="#555454"/>
</svg>
